<svg width="39" height="43" viewBox="0 0 39 43" fill="none" xmlns="http://www.w3.org/2000/svg">
<rect y="16" width="38" height="23" fill="#F2C94C"/>
<path d="M9.3 31.279C6.65467 31.279 4.62933 30.318 3.224 28.396C1.83933 26.474 1.147 23.6943 1.147 20.057C1.147 16.4403 1.83933 13.671 3.224 11.749C4.62933 9.827 6.65467 8.866 9.3 8.866C11.9453 8.866 13.9603 9.827 15.345 11.749C16.7503 13.671 17.453 16.4403 17.453 20.057C17.453 23.6943 16.7503 26.474 15.345 28.396C13.9603 30.318 11.9453 31.279 9.3 31.279ZM9.3 27.59C10.4987 27.59 11.3667 26.9907 11.904 25.792C12.462 24.5933 12.741 22.6817 12.741 20.057C12.741 17.4117 12.462 15.5 11.904 14.322C11.3667 13.144 10.4987 12.555 9.3 12.555C8.10133 12.555 7.223 13.1543 6.665 14.353C6.12767 15.531 5.859 17.4323 5.859 20.057C5.859 22.6817 6.12767 24.5933 6.665 25.792C7.223 26.9907 8.10133 27.59 9.3 27.59ZM34.2739 27.125C35.7826 27.125 36.5369 27.7657 36.5369 29.047C36.5369 30.349 35.7826 31 34.2739 31H23.6719C22.1426 31 21.3779 30.349 21.3779 29.047C21.3779 27.7657 22.1426 27.125 23.6719 27.125H26.5549V14.446L23.8269 16.089C23.5169 16.275 23.2069 16.368 22.8969 16.368C22.3802 16.368 21.9359 16.151 21.5639 15.717C21.2126 15.283 21.0369 14.7973 21.0369 14.26C21.0369 13.5367 21.3572 12.989 21.9979 12.617L26.8959 9.672C27.6192 9.238 28.3426 9.021 29.0659 9.021C29.7479 9.021 30.3059 9.238 30.7399 9.672C31.1739 10.0853 31.3909 10.6537 31.3909 11.377V27.125H34.2739Z" fill="black"/>
</svg>
