<svg width="39" height="43" viewBox="0 0 39 43" fill="none" xmlns="http://www.w3.org/2000/svg">
<rect y="16" width="38" height="23" fill="#F2C94C"/>
<path d="M9.3 31.279C6.65467 31.279 4.62933 30.318 3.224 28.396C1.83933 26.474 1.147 23.6943 1.147 20.057C1.147 16.4403 1.83933 13.671 3.224 11.749C4.62933 9.827 6.65467 8.866 9.3 8.866C11.9453 8.866 13.9603 9.827 15.345 11.749C16.7503 13.671 17.453 16.4403 17.453 20.057C17.453 23.6943 16.7503 26.474 15.345 28.396C13.9603 30.318 11.9453 31.279 9.3 31.279ZM9.3 27.59C10.4987 27.59 11.3667 26.9907 11.904 25.792C12.462 24.5933 12.741 22.6817 12.741 20.057C12.741 17.4117 12.462 15.5 11.904 14.322C11.3667 13.144 10.4987 12.555 9.3 12.555C8.10133 12.555 7.223 13.1543 6.665 14.353C6.12767 15.531 5.859 17.4323 5.859 20.057C5.859 22.6817 6.12767 24.5933 6.665 25.792C7.223 26.9907 8.10133 27.59 9.3 27.59ZM33.8399 27.125C35.3692 27.125 36.1339 27.7657 36.1339 29.047C36.1339 30.349 35.3692 31 33.8399 31H22.3079C21.6672 31 21.1506 30.814 20.7579 30.442C20.3859 30.0493 20.1999 29.5637 20.1999 28.985C20.1999 28.241 20.4996 27.559 21.0989 26.939L27.9189 19.716C29.4482 18.104 30.2129 16.616 30.2129 15.252C30.2129 14.4047 29.9752 13.764 29.4999 13.33C29.0246 12.8753 28.3322 12.648 27.4229 12.648C26.6376 12.648 25.9142 12.7823 25.2529 13.051C24.5916 13.3197 23.8269 13.7123 22.9589 14.229C22.6076 14.4357 22.3389 14.5803 22.1529 14.663C21.9669 14.7457 21.7499 14.787 21.5019 14.787C21.0679 14.787 20.6959 14.5907 20.3859 14.198C20.0759 13.7847 19.9209 13.3093 19.9209 12.772C19.9209 12.3793 19.9829 12.059 20.1069 11.811C20.2516 11.5423 20.4789 11.3047 20.7889 11.098C21.7189 10.416 22.7832 9.87867 23.9819 9.486C25.2012 9.07267 26.4206 8.866 27.6399 8.866C29.1072 8.866 30.3886 9.114 31.4839 9.61C32.5999 10.106 33.4576 10.819 34.0569 11.749C34.6562 12.6583 34.9559 13.7123 34.9559 14.911C34.9559 16.1717 34.6872 17.3393 34.1499 18.414C33.6332 19.4887 32.7549 20.6873 31.5149 22.01L26.6479 27.125H33.8399Z" fill="black"/>
</svg>
