<svg width="39" height="43" viewBox="0 0 39 43" fill="none" xmlns="http://www.w3.org/2000/svg">
<rect y="16" width="38" height="23" fill="#F2C94C"/>
<path d="M9.3 31.279C6.65467 31.279 4.62933 30.318 3.224 28.396C1.83933 26.474 1.147 23.6943 1.147 20.057C1.147 16.4403 1.83933 13.671 3.224 11.749C4.62933 9.827 6.65467 8.866 9.3 8.866C11.9453 8.866 13.9603 9.827 15.345 11.749C16.7503 13.671 17.453 16.4403 17.453 20.057C17.453 23.6943 16.7503 26.474 15.345 28.396C13.9603 30.318 11.9453 31.279 9.3 31.279ZM9.3 27.59C10.4987 27.59 11.3667 26.9907 11.904 25.792C12.462 24.5933 12.741 22.6817 12.741 20.057C12.741 17.4117 12.462 15.5 11.904 14.322C11.3667 13.144 10.4987 12.555 9.3 12.555C8.10133 12.555 7.223 13.1543 6.665 14.353C6.12767 15.531 5.859 17.4323 5.859 20.057C5.859 22.6817 6.12767 24.5933 6.665 25.792C7.223 26.9907 8.10133 27.59 9.3 27.59ZM31.5149 19.747C32.7962 20.119 33.7779 20.77 34.4599 21.7C35.1626 22.6093 35.5139 23.7253 35.5139 25.048C35.5139 26.3087 35.1832 27.404 34.5219 28.334C33.8812 29.264 32.9512 29.9873 31.7319 30.504C30.5126 31 29.0969 31.248 27.4849 31.248C26.1416 31.248 24.8499 31.0517 23.6099 30.659C22.3906 30.2663 21.3366 29.7187 20.4479 29.016C20.1379 28.7887 19.9106 28.5407 19.7659 28.272C19.6419 28.0033 19.5799 27.6933 19.5799 27.342C19.5799 26.8047 19.7349 26.35 20.0449 25.978C20.3549 25.5853 20.7269 25.389 21.1609 25.389C21.4089 25.389 21.6362 25.4303 21.8429 25.513C22.0496 25.575 22.3079 25.699 22.6179 25.885C23.5272 26.4017 24.3126 26.7943 24.9739 27.063C25.6352 27.3317 26.4102 27.466 27.2989 27.466C28.5596 27.466 29.4792 27.2387 30.0579 26.784C30.6366 26.3087 30.9259 25.575 30.9259 24.583C30.9259 23.6117 30.6262 22.909 30.0269 22.475C29.4276 22.041 28.4666 21.824 27.1439 21.824H25.3149C24.7776 21.824 24.3539 21.638 24.0439 21.266C23.7339 20.894 23.5789 20.4497 23.5789 19.933C23.5789 19.437 23.7339 19.003 24.0439 18.631C24.3539 18.259 24.7776 18.073 25.3149 18.073H26.6169C27.8776 18.073 28.8076 17.856 29.4069 17.422C30.0269 16.988 30.3369 16.3163 30.3369 15.407C30.3369 14.539 30.0786 13.8673 29.5619 13.392C29.0452 12.896 28.3219 12.648 27.3919 12.648C26.6272 12.648 25.9142 12.7823 25.2529 13.051C24.5916 13.3197 23.8269 13.7123 22.9589 14.229C22.6489 14.415 22.3906 14.5493 22.1839 14.632C21.9772 14.694 21.7499 14.725 21.5019 14.725C21.0679 14.725 20.6959 14.539 20.3859 14.167C20.0759 13.7743 19.9209 13.3093 19.9209 12.772C19.9209 12.4 19.9829 12.09 20.1069 11.842C20.2516 11.5733 20.4789 11.3253 20.7889 11.098C21.6569 10.3953 22.6902 9.84766 23.8889 9.455C25.1082 9.06233 26.3482 8.866 27.6089 8.866C29.0762 8.866 30.3679 9.114 31.4839 9.61C32.5999 10.0853 33.4576 10.7673 34.0569 11.656C34.6562 12.5447 34.9559 13.578 34.9559 14.756C34.9559 15.934 34.6459 16.9673 34.0259 17.856C33.4266 18.724 32.5896 19.3543 31.5149 19.747Z" fill="black"/>
</svg>
