<svg width="568" height="54" viewBox="0 0 568 54" fill="none" xmlns="http://www.w3.org/2000/svg">
<rect y="23" width="564" height="31" fill="#F2C94C"/>
<path d="M4.488 34C3.96667 34 3.54733 33.8527 3.23 33.558C2.93533 33.2633 2.788 32.8667 2.788 32.368V11.628C2.788 11.1067 2.94667 10.6873 3.264 10.37C3.58133 10.03 4.00067 9.86 4.522 9.86C5.066 9.86 5.49667 10.0187 5.814 10.336C6.13133 10.6533 6.29 11.084 6.29 11.628V31.076H16.626C17.1473 31.076 17.544 31.2007 17.816 31.45C18.1107 31.6993 18.258 32.062 18.258 32.538C18.258 33.014 18.1107 33.3767 17.816 33.626C17.544 33.8753 17.1473 34 16.626 34H4.488ZM33.8953 29.818C34.2127 29.818 34.4733 29.9427 34.6773 30.192C34.8813 30.4413 34.9833 30.7587 34.9833 31.144C34.9833 31.8013 34.5753 32.3567 33.7593 32.81C32.966 33.2633 32.0933 33.6147 31.1413 33.864C30.212 34.1133 29.3167 34.238 28.4553 34.238C25.826 34.238 23.752 33.4787 22.2333 31.96C20.7147 30.4187 19.9553 28.322 19.9553 25.67C19.9553 23.97 20.284 22.4627 20.9413 21.148C21.6213 19.8333 22.562 18.8133 23.7633 18.088C24.9873 17.3627 26.37 17 27.9113 17C30.1327 17 31.8893 17.714 33.1813 19.142C34.4733 20.57 35.1193 22.4967 35.1193 24.922C35.1193 25.8287 34.7113 26.282 33.8953 26.282H23.3893C23.616 29.7953 25.3047 31.552 28.4553 31.552C29.294 31.552 30.0193 31.4387 30.6313 31.212C31.2433 30.9853 31.8893 30.6907 32.5693 30.328C32.6373 30.2827 32.8187 30.192 33.1133 30.056C33.4307 29.8973 33.6913 29.818 33.8953 29.818ZM27.9793 19.516C26.6647 19.516 25.6107 19.9353 24.8173 20.774C24.024 21.6127 23.548 22.7913 23.3893 24.31H32.1613C32.0933 22.7687 31.6967 21.59 30.9713 20.774C30.2687 19.9353 29.2713 19.516 27.9793 19.516ZM46.8634 31.552C47.3621 31.5973 47.7134 31.7333 47.9174 31.96C48.1441 32.164 48.2574 32.4587 48.2574 32.844C48.2574 33.2973 48.0761 33.6487 47.7134 33.898C47.3734 34.1247 46.8634 34.2153 46.1834 34.17L45.2654 34.102C43.4294 33.966 42.0581 33.4107 41.1514 32.436C40.2448 31.4387 39.7914 29.9767 39.7914 28.05V20.06H37.7514C36.7541 20.06 36.2554 19.618 36.2554 18.734C36.2554 18.326 36.3801 18.0087 36.6294 17.782C36.9014 17.5327 37.2754 17.408 37.7514 17.408H39.7914V13.906C39.7914 13.3847 39.9388 12.9767 40.2334 12.682C40.5508 12.3873 40.9701 12.24 41.4914 12.24C42.0128 12.24 42.4321 12.3873 42.7494 12.682C43.0668 12.9767 43.2254 13.3847 43.2254 13.906V17.408H46.5914C47.0674 17.408 47.4301 17.5327 47.6794 17.782C47.9514 18.0087 48.0874 18.326 48.0874 18.734C48.0874 19.1647 47.9514 19.4933 47.6794 19.72C47.4301 19.9467 47.0674 20.06 46.5914 20.06H43.2254V28.288C43.2254 29.3533 43.4408 30.1353 43.8714 30.634C44.3248 31.1327 45.0048 31.416 45.9114 31.484L46.8634 31.552ZM52.2885 9.86C52.9685 9.86 53.5012 10.1093 53.8865 10.608C54.2945 11.1067 54.4985 11.8433 54.4985 12.818C54.4985 14.7447 53.8525 16.4107 52.5605 17.816C52.2885 18.088 51.9939 18.224 51.6765 18.224C51.3819 18.224 51.1325 18.1333 50.9285 17.952C50.7245 17.748 50.6225 17.51 50.6225 17.238C50.6225 16.9887 50.7245 16.7507 50.9285 16.524C51.5632 15.8667 51.9712 15.0847 52.1525 14.178C51.5859 14.1327 51.1099 13.9173 50.7245 13.532C50.3619 13.1467 50.1805 12.6593 50.1805 12.07C50.1805 11.4353 50.3845 10.914 50.7925 10.506C51.2005 10.0753 51.6992 9.86 52.2885 9.86ZM63.6092 34.238C61.2972 34.238 59.4046 33.762 57.9312 32.81C57.5232 32.5607 57.2286 32.3 57.0472 32.028C56.8886 31.756 56.8092 31.45 56.8092 31.11C56.8092 30.7473 56.9112 30.4413 57.1152 30.192C57.3192 29.9427 57.5799 29.818 57.8972 29.818C58.1919 29.818 58.6566 29.9993 59.2912 30.362C59.9712 30.7247 60.6286 31.0193 61.2632 31.246C61.9206 31.4727 62.7366 31.586 63.7112 31.586C64.7992 31.586 65.6492 31.3933 66.2612 31.008C66.8732 30.6227 67.1792 30.0787 67.1792 29.376C67.1792 28.9227 67.0546 28.56 66.8052 28.288C66.5786 28.016 66.1706 27.778 65.5812 27.574C64.9919 27.3473 64.1192 27.1093 62.9632 26.86C60.9686 26.4293 59.5292 25.8513 58.6452 25.126C57.7839 24.378 57.3532 23.3693 57.3532 22.1C57.3532 21.1253 57.6366 20.2527 58.2032 19.482C58.7699 18.6887 59.5519 18.0767 60.5492 17.646C61.5466 17.2153 62.6799 17 63.9492 17C64.8559 17 65.7399 17.1247 66.6012 17.374C67.4626 17.6007 68.2219 17.9407 68.8792 18.394C69.6272 18.8927 70.0012 19.4707 70.0012 20.128C70.0012 20.4907 69.8879 20.7967 69.6612 21.046C69.4572 21.2953 69.2079 21.42 68.9132 21.42C68.7092 21.42 68.5052 21.3747 68.3012 21.284C68.0972 21.1933 67.8252 21.046 67.4852 20.842C66.8732 20.4793 66.2952 20.196 65.7512 19.992C65.2299 19.788 64.5726 19.686 63.7792 19.686C62.8272 19.686 62.0566 19.89 61.4672 20.298C60.9006 20.706 60.6172 21.2613 60.6172 21.964C60.6172 22.5987 60.8779 23.0973 61.3992 23.46C61.9432 23.8 62.9519 24.1287 64.4252 24.446C65.9439 24.7633 67.1339 25.126 67.9952 25.534C68.8566 25.942 69.4686 26.452 69.8312 27.064C70.2166 27.6533 70.4092 28.4127 70.4092 29.342C70.4092 30.8153 69.7859 32.0053 68.5392 32.912C67.3152 33.796 65.6719 34.238 63.6092 34.238ZM88.9764 34.238C86.6644 34.238 84.7717 33.762 83.2984 32.81C82.8904 32.5607 82.5957 32.3 82.4144 32.028C82.2557 31.756 82.1764 31.45 82.1764 31.11C82.1764 30.7473 82.2784 30.4413 82.4824 30.192C82.6864 29.9427 82.9471 29.818 83.2644 29.818C83.5591 29.818 84.0237 29.9993 84.6584 30.362C85.3384 30.7247 85.9957 31.0193 86.6304 31.246C87.2877 31.4727 88.1037 31.586 89.0784 31.586C90.1664 31.586 91.0164 31.3933 91.6284 31.008C92.2404 30.6227 92.5464 30.0787 92.5464 29.376C92.5464 28.9227 92.4217 28.56 92.1724 28.288C91.9457 28.016 91.5377 27.778 90.9484 27.574C90.3591 27.3473 89.4864 27.1093 88.3304 26.86C86.3357 26.4293 84.8964 25.8513 84.0124 25.126C83.1511 24.378 82.7204 23.3693 82.7204 22.1C82.7204 21.1253 83.0037 20.2527 83.5704 19.482C84.1371 18.6887 84.9191 18.0767 85.9164 17.646C86.9137 17.2153 88.0471 17 89.3164 17C90.2231 17 91.1071 17.1247 91.9684 17.374C92.8297 17.6007 93.5891 17.9407 94.2464 18.394C94.9944 18.8927 95.3684 19.4707 95.3684 20.128C95.3684 20.4907 95.2551 20.7967 95.0284 21.046C94.8244 21.2953 94.5751 21.42 94.2804 21.42C94.0764 21.42 93.8724 21.3747 93.6684 21.284C93.4644 21.1933 93.1924 21.046 92.8524 20.842C92.2404 20.4793 91.6624 20.196 91.1184 19.992C90.5971 19.788 89.9397 19.686 89.1464 19.686C88.1944 19.686 87.4237 19.89 86.8344 20.298C86.2677 20.706 85.9844 21.2613 85.9844 21.964C85.9844 22.5987 86.2451 23.0973 86.7664 23.46C87.3104 23.8 88.3191 24.1287 89.7924 24.446C91.3111 24.7633 92.5011 25.126 93.3624 25.534C94.2237 25.942 94.8357 26.452 95.1984 27.064C95.5837 27.6533 95.7764 28.4127 95.7764 29.342C95.7764 30.8153 95.1531 32.0053 93.9064 32.912C92.6824 33.796 91.0391 34.238 88.9764 34.238ZM112.587 29.818C112.904 29.818 113.165 29.9427 113.369 30.192C113.573 30.4413 113.675 30.7587 113.675 31.144C113.675 31.8013 113.267 32.3567 112.451 32.81C111.657 33.2633 110.785 33.6147 109.833 33.864C108.903 34.1133 108.008 34.238 107.147 34.238C104.517 34.238 102.443 33.4787 100.925 31.96C99.4061 30.4187 98.6468 28.322 98.6468 25.67C98.6468 23.97 98.9754 22.4627 99.6328 21.148C100.313 19.8333 101.253 18.8133 102.455 18.088C103.679 17.3627 105.061 17 106.603 17C108.824 17 110.581 17.714 111.873 19.142C113.165 20.57 113.811 22.4967 113.811 24.922C113.811 25.8287 113.403 26.282 112.587 26.282H102.081C102.307 29.7953 103.996 31.552 107.147 31.552C107.985 31.552 108.711 31.4387 109.323 31.212C109.935 30.9853 110.581 30.6907 111.261 30.328C111.329 30.2827 111.51 30.192 111.805 30.056C112.122 29.8973 112.383 29.818 112.587 29.818ZM106.671 19.516C105.356 19.516 104.302 19.9353 103.509 20.774C102.715 21.6127 102.239 22.7913 102.081 24.31H110.853C110.785 22.7687 110.388 21.59 109.663 20.774C108.96 19.9353 107.963 19.516 106.671 19.516ZM130.583 29.818C130.9 29.818 131.161 29.9427 131.365 30.192C131.569 30.4413 131.671 30.7587 131.671 31.144C131.671 31.8013 131.263 32.3567 130.447 32.81C129.654 33.2633 128.781 33.6147 127.829 33.864C126.9 34.1133 126.004 34.238 125.143 34.238C122.514 34.238 120.44 33.4787 118.921 31.96C117.402 30.4187 116.643 28.322 116.643 25.67C116.643 23.97 116.972 22.4627 117.629 21.148C118.309 19.8333 119.25 18.8133 120.451 18.088C121.675 17.3627 123.058 17 124.599 17C126.82 17 128.577 17.714 129.869 19.142C131.161 20.57 131.807 22.4967 131.807 24.922C131.807 25.8287 131.399 26.282 130.583 26.282H120.077C120.304 29.7953 121.992 31.552 125.143 31.552C125.982 31.552 126.707 31.4387 127.319 31.212C127.931 30.9853 128.577 30.6907 129.257 30.328C129.325 30.2827 129.506 30.192 129.801 30.056C130.118 29.8973 130.379 29.818 130.583 29.818ZM124.667 19.516C123.352 19.516 122.298 19.9353 121.505 20.774C120.712 21.6127 120.236 22.7913 120.077 24.31H128.849C128.781 22.7687 128.384 21.59 127.659 20.774C126.956 19.9353 125.959 19.516 124.667 19.516ZM150.336 34.238C148.024 34.238 146.131 33.762 144.658 32.81C144.25 32.5607 143.955 32.3 143.774 32.028C143.615 31.756 143.536 31.45 143.536 31.11C143.536 30.7473 143.638 30.4413 143.842 30.192C144.046 29.9427 144.306 29.818 144.624 29.818C144.918 29.818 145.383 29.9993 146.018 30.362C146.698 30.7247 147.355 31.0193 147.99 31.246C148.647 31.4727 149.463 31.586 150.438 31.586C151.526 31.586 152.376 31.3933 152.988 31.008C153.6 30.6227 153.906 30.0787 153.906 29.376C153.906 28.9227 153.781 28.56 153.532 28.288C153.305 28.016 152.897 27.778 152.308 27.574C151.718 27.3473 150.846 27.1093 149.69 26.86C147.695 26.4293 146.256 25.8513 145.372 25.126C144.51 24.378 144.08 23.3693 144.08 22.1C144.08 21.1253 144.363 20.2527 144.93 19.482C145.496 18.6887 146.278 18.0767 147.276 17.646C148.273 17.2153 149.406 17 150.676 17C151.582 17 152.466 17.1247 153.328 17.374C154.189 17.6007 154.948 17.9407 155.606 18.394C156.354 18.8927 156.728 19.4707 156.728 20.128C156.728 20.4907 156.614 20.7967 156.388 21.046C156.184 21.2953 155.934 21.42 155.64 21.42C155.436 21.42 155.232 21.3747 155.028 21.284C154.824 21.1933 154.552 21.046 154.212 20.842C153.6 20.4793 153.022 20.196 152.478 19.992C151.956 19.788 151.299 19.686 150.506 19.686C149.554 19.686 148.783 19.89 148.194 20.298C147.627 20.706 147.344 21.2613 147.344 21.964C147.344 22.5987 147.604 23.0973 148.126 23.46C148.67 23.8 149.678 24.1287 151.152 24.446C152.67 24.7633 153.86 25.126 154.722 25.534C155.583 25.942 156.195 26.452 156.558 27.064C156.943 27.6533 157.136 28.4127 157.136 29.342C157.136 30.8153 156.512 32.0053 155.266 32.912C154.042 33.796 152.398 34.238 150.336 34.238ZM168.166 34.238C166.534 34.238 165.095 33.8867 163.848 33.184C162.624 32.4813 161.672 31.484 160.992 30.192C160.335 28.8773 160.006 27.3587 160.006 25.636C160.006 23.8907 160.335 22.372 160.992 21.08C161.672 19.7653 162.624 18.7567 163.848 18.054C165.095 17.3513 166.534 17 168.166 17C169.798 17 171.226 17.3513 172.45 18.054C173.697 18.7567 174.649 19.7653 175.306 21.08C175.986 22.372 176.326 23.8907 176.326 25.636C176.326 27.3587 175.986 28.8773 175.306 30.192C174.649 31.484 173.697 32.4813 172.45 33.184C171.226 33.8867 169.798 34.238 168.166 34.238ZM168.166 31.518C169.685 31.518 170.841 31.0193 171.634 30.022C172.45 29.0247 172.858 27.5627 172.858 25.636C172.858 23.732 172.45 22.2813 171.634 21.284C170.818 20.264 169.662 19.754 168.166 19.754C166.67 19.754 165.514 20.264 164.698 21.284C163.882 22.2813 163.474 23.732 163.474 25.636C163.474 27.5627 163.871 29.0247 164.664 30.022C165.48 31.0193 166.647 31.518 168.166 31.518ZM199.19 17C202.907 17 204.766 19.2327 204.766 23.698V32.538C204.766 33.0593 204.607 33.4673 204.29 33.762C203.972 34.034 203.553 34.17 203.032 34.17C202.533 34.17 202.125 34.034 201.808 33.762C201.49 33.4673 201.332 33.0593 201.332 32.538V23.732C201.332 22.3493 201.082 21.352 200.584 20.74C200.085 20.1053 199.303 19.788 198.238 19.788C196.991 19.788 196.005 20.2187 195.28 21.08C194.554 21.9187 194.192 23.0747 194.192 24.548V32.538C194.192 33.0593 194.033 33.4673 193.716 33.762C193.398 34.034 192.979 34.17 192.458 34.17C191.959 34.17 191.551 34.034 191.234 33.762C190.916 33.4673 190.758 33.0593 190.758 32.538V23.732C190.758 22.3493 190.508 21.352 190.01 20.74C189.511 20.1053 188.729 19.788 187.664 19.788C186.417 19.788 185.42 20.2187 184.672 21.08C183.946 21.9187 183.584 23.0747 183.584 24.548V32.538C183.584 33.0593 183.425 33.4673 183.108 33.762C182.79 34.034 182.382 34.17 181.884 34.17C181.385 34.17 180.966 34.034 180.626 33.762C180.308 33.4673 180.15 33.0593 180.15 32.538V18.7C180.15 18.2013 180.32 17.8047 180.66 17.51C181 17.2153 181.408 17.068 181.884 17.068C182.36 17.068 182.745 17.2153 183.04 17.51C183.357 17.782 183.516 18.1673 183.516 18.666V19.924C184.014 18.972 184.706 18.2467 185.59 17.748C186.474 17.2493 187.494 17 188.65 17C189.919 17 190.962 17.2607 191.778 17.782C192.616 18.3033 193.24 19.108 193.648 20.196C194.146 19.2213 194.883 18.4507 195.858 17.884C196.832 17.2947 197.943 17 199.19 17ZM222.456 29.818C222.773 29.818 223.034 29.9427 223.238 30.192C223.442 30.4413 223.544 30.7587 223.544 31.144C223.544 31.8013 223.136 32.3567 222.32 32.81C221.527 33.2633 220.654 33.6147 219.702 33.864C218.773 34.1133 217.877 34.238 217.016 34.238C214.387 34.238 212.313 33.4787 210.794 31.96C209.275 30.4187 208.516 28.322 208.516 25.67C208.516 23.97 208.845 22.4627 209.502 21.148C210.182 19.8333 211.123 18.8133 212.324 18.088C213.548 17.3627 214.931 17 216.472 17C218.693 17 220.45 17.714 221.742 19.142C223.034 20.57 223.68 22.4967 223.68 24.922C223.68 25.8287 223.272 26.282 222.456 26.282H211.95C212.177 29.7953 213.865 31.552 217.016 31.552C217.855 31.552 218.58 31.4387 219.192 31.212C219.804 30.9853 220.45 30.6907 221.13 30.328C221.198 30.2827 221.379 30.192 221.674 30.056C221.991 29.8973 222.252 29.818 222.456 29.818ZM216.54 19.516C215.225 19.516 214.171 19.9353 213.378 20.774C212.585 21.6127 212.109 22.7913 211.95 24.31H220.722C220.654 22.7687 220.257 21.59 219.532 20.774C218.829 19.9353 217.832 19.516 216.54 19.516ZM243.637 34.238C242.005 34.238 240.565 33.8867 239.319 33.184C238.095 32.4813 237.143 31.484 236.463 30.192C235.805 28.8773 235.477 27.3587 235.477 25.636C235.477 23.8907 235.805 22.372 236.463 21.08C237.143 19.7653 238.095 18.7567 239.319 18.054C240.565 17.3513 242.005 17 243.637 17C245.269 17 246.697 17.3513 247.921 18.054C249.167 18.7567 250.119 19.7653 250.777 21.08C251.457 22.372 251.797 23.8907 251.797 25.636C251.797 27.3587 251.457 28.8773 250.777 30.192C250.119 31.484 249.167 32.4813 247.921 33.184C246.697 33.8867 245.269 34.238 243.637 34.238ZM243.637 31.518C245.155 31.518 246.311 31.0193 247.105 30.022C247.921 29.0247 248.329 27.5627 248.329 25.636C248.329 23.732 247.921 22.2813 247.105 21.284C246.289 20.264 245.133 19.754 243.637 19.754C242.141 19.754 240.985 20.264 240.169 21.284C239.353 22.2813 238.945 23.732 238.945 25.636C238.945 27.5627 239.341 29.0247 240.135 30.022C240.951 31.0193 242.118 31.518 243.637 31.518ZM263.374 12.648C262.24 12.7387 261.402 13.1013 260.858 13.736C260.314 14.348 260.042 15.2547 260.042 16.456V17.408H263.408C263.884 17.408 264.246 17.5327 264.496 17.782C264.768 18.0087 264.904 18.326 264.904 18.734C264.904 19.142 264.768 19.4707 264.496 19.72C264.246 19.9467 263.884 20.06 263.408 20.06H260.042V32.504C260.042 33.048 259.872 33.4673 259.532 33.762C259.214 34.034 258.806 34.17 258.308 34.17C257.809 34.17 257.401 34.034 257.084 33.762C256.766 33.4673 256.608 33.048 256.608 32.504V20.06H254.568C254.092 20.06 253.718 19.9467 253.446 19.72C253.196 19.4707 253.072 19.142 253.072 18.734C253.072 18.326 253.196 18.0087 253.446 17.782C253.718 17.5327 254.092 17.408 254.568 17.408H256.608V16.966C256.608 14.8807 257.14 13.2487 258.206 12.07C259.271 10.8687 260.778 10.2 262.728 10.064L263.612 9.996C264.337 9.95067 264.858 10.03 265.176 10.234C265.516 10.438 265.686 10.7667 265.686 11.22C265.686 12.0133 265.21 12.4667 264.258 12.58L263.374 12.648ZM295.18 17C298.897 17 300.756 19.2327 300.756 23.698V32.538C300.756 33.0593 300.597 33.4673 300.28 33.762C299.962 34.034 299.543 34.17 299.022 34.17C298.523 34.17 298.115 34.034 297.798 33.762C297.48 33.4673 297.322 33.0593 297.322 32.538V23.732C297.322 22.3493 297.072 21.352 296.574 20.74C296.075 20.1053 295.293 19.788 294.228 19.788C292.981 19.788 291.995 20.2187 291.27 21.08C290.544 21.9187 290.182 23.0747 290.182 24.548V32.538C290.182 33.0593 290.023 33.4673 289.706 33.762C289.388 34.034 288.969 34.17 288.448 34.17C287.949 34.17 287.541 34.034 287.224 33.762C286.906 33.4673 286.748 33.0593 286.748 32.538V23.732C286.748 22.3493 286.498 21.352 286 20.74C285.501 20.1053 284.719 19.788 283.654 19.788C282.407 19.788 281.41 20.2187 280.662 21.08C279.936 21.9187 279.574 23.0747 279.574 24.548V32.538C279.574 33.0593 279.415 33.4673 279.098 33.762C278.78 34.034 278.372 34.17 277.874 34.17C277.375 34.17 276.956 34.034 276.616 33.762C276.298 33.4673 276.14 33.0593 276.14 32.538V18.7C276.14 18.2013 276.31 17.8047 276.65 17.51C276.99 17.2153 277.398 17.068 277.874 17.068C278.35 17.068 278.735 17.2153 279.03 17.51C279.347 17.782 279.506 18.1673 279.506 18.666V19.924C280.004 18.972 280.696 18.2467 281.58 17.748C282.464 17.2493 283.484 17 284.64 17C285.909 17 286.952 17.2607 287.768 17.782C288.606 18.3033 289.23 19.108 289.638 20.196C290.136 19.2213 290.873 18.4507 291.848 17.884C292.822 17.2947 293.933 17 295.18 17ZM317.256 18.088C317.392 17.748 317.585 17.4987 317.834 17.34C318.106 17.1813 318.389 17.102 318.684 17.102C319.115 17.102 319.489 17.2493 319.806 17.544C320.146 17.8387 320.316 18.19 320.316 18.598C320.316 18.8247 320.271 19.04 320.18 19.244L310.728 39.304C310.592 39.6213 310.388 39.8593 310.116 40.018C309.867 40.1993 309.595 40.29 309.3 40.29C308.892 40.29 308.518 40.154 308.178 39.882C307.861 39.61 307.702 39.27 307.702 38.862C307.702 38.6807 307.759 38.454 307.872 38.182L310.218 33.184L303.656 19.244C303.565 19.0627 303.52 18.8587 303.52 18.632C303.52 18.2013 303.701 17.8387 304.064 17.544C304.427 17.2493 304.835 17.102 305.288 17.102C305.968 17.102 306.455 17.4193 306.75 18.054L312.02 29.75L317.256 18.088ZM337.867 34.238C335.555 34.238 333.662 33.762 332.189 32.81C331.781 32.5607 331.486 32.3 331.305 32.028C331.146 31.756 331.067 31.45 331.067 31.11C331.067 30.7473 331.169 30.4413 331.373 30.192C331.577 29.9427 331.838 29.818 332.155 29.818C332.45 29.818 332.914 29.9993 333.549 30.362C334.229 30.7247 334.886 31.0193 335.521 31.246C336.178 31.4727 336.994 31.586 337.969 31.586C339.057 31.586 339.907 31.3933 340.519 31.008C341.131 30.6227 341.437 30.0787 341.437 29.376C341.437 28.9227 341.312 28.56 341.063 28.288C340.836 28.016 340.428 27.778 339.839 27.574C339.25 27.3473 338.377 27.1093 337.221 26.86C335.226 26.4293 333.787 25.8513 332.903 25.126C332.042 24.378 331.611 23.3693 331.611 22.1C331.611 21.1253 331.894 20.2527 332.461 19.482C333.028 18.6887 333.81 18.0767 334.807 17.646C335.804 17.2153 336.938 17 338.207 17C339.114 17 339.998 17.1247 340.859 17.374C341.72 17.6007 342.48 17.9407 343.137 18.394C343.885 18.8927 344.259 19.4707 344.259 20.128C344.259 20.4907 344.146 20.7967 343.919 21.046C343.715 21.2953 343.466 21.42 343.171 21.42C342.967 21.42 342.763 21.3747 342.559 21.284C342.355 21.1933 342.083 21.046 341.743 20.842C341.131 20.4793 340.553 20.196 340.009 19.992C339.488 19.788 338.83 19.686 338.037 19.686C337.085 19.686 336.314 19.89 335.725 20.298C335.158 20.706 334.875 21.2613 334.875 21.964C334.875 22.5987 335.136 23.0973 335.657 23.46C336.201 23.8 337.21 24.1287 338.683 24.446C340.202 24.7633 341.392 25.126 342.253 25.534C343.114 25.942 343.726 26.452 344.089 27.064C344.474 27.6533 344.667 28.4127 344.667 29.342C344.667 30.8153 344.044 32.0053 342.797 32.912C341.573 33.796 339.93 34.238 337.867 34.238ZM361.477 29.818C361.795 29.818 362.055 29.9427 362.259 30.192C362.463 30.4413 362.565 30.7587 362.565 31.144C362.565 31.8013 362.157 32.3567 361.341 32.81C360.548 33.2633 359.675 33.6147 358.723 33.864C357.794 34.1133 356.899 34.238 356.037 34.238C353.408 34.238 351.334 33.4787 349.815 31.96C348.297 30.4187 347.537 28.322 347.537 25.67C347.537 23.97 347.866 22.4627 348.523 21.148C349.203 19.8333 350.144 18.8133 351.345 18.088C352.569 17.3627 353.952 17 355.493 17C357.715 17 359.471 17.714 360.763 19.142C362.055 20.57 362.701 22.4967 362.701 24.922C362.701 25.8287 362.293 26.282 361.477 26.282H350.971C351.198 29.7953 352.887 31.552 356.037 31.552C356.876 31.552 357.601 31.4387 358.213 31.212C358.825 30.9853 359.471 30.6907 360.151 30.328C360.219 30.2827 360.401 30.192 360.695 30.056C361.013 29.8973 361.273 29.818 361.477 29.818ZM355.561 19.516C354.247 19.516 353.193 19.9353 352.399 20.774C351.606 21.6127 351.13 22.7913 350.971 24.31H359.743C359.675 22.7687 359.279 21.59 358.553 20.774C357.851 19.9353 356.853 19.516 355.561 19.516ZM368.219 34.17C367.721 34.17 367.301 34.034 366.961 33.762C366.644 33.49 366.485 33.082 366.485 32.538V11.526C366.485 10.982 366.644 10.574 366.961 10.302C367.301 10.0073 367.721 9.86 368.219 9.86C368.718 9.86 369.126 10.0073 369.443 10.302C369.761 10.574 369.919 10.982 369.919 11.526V32.538C369.919 33.082 369.761 33.49 369.443 33.762C369.126 34.034 368.718 34.17 368.219 34.17ZM387.708 29.818C388.025 29.818 388.286 29.9427 388.49 30.192C388.694 30.4413 388.796 30.7587 388.796 31.144C388.796 31.8013 388.388 32.3567 387.572 32.81C386.779 33.2633 385.906 33.6147 384.954 33.864C384.025 34.1133 383.129 34.238 382.268 34.238C379.639 34.238 377.565 33.4787 376.046 31.96C374.527 30.4187 373.768 28.322 373.768 25.67C373.768 23.97 374.097 22.4627 374.754 21.148C375.434 19.8333 376.375 18.8133 377.576 18.088C378.8 17.3627 380.183 17 381.724 17C383.945 17 385.702 17.714 386.994 19.142C388.286 20.57 388.932 22.4967 388.932 24.922C388.932 25.8287 388.524 26.282 387.708 26.282H377.202C377.429 29.7953 379.117 31.552 382.268 31.552C383.107 31.552 383.832 31.4387 384.444 31.212C385.056 30.9853 385.702 30.6907 386.382 30.328C386.45 30.2827 386.631 30.192 386.926 30.056C387.243 29.8973 387.504 29.818 387.708 29.818ZM381.792 19.516C380.477 19.516 379.423 19.9353 378.63 20.774C377.837 21.6127 377.361 22.7913 377.202 24.31H385.974C385.906 22.7687 385.509 21.59 384.784 20.774C384.081 19.9353 383.084 19.516 381.792 19.516ZM399.822 34.238C398.213 34.238 396.796 33.8867 395.572 33.184C394.371 32.4813 393.43 31.484 392.75 30.192C392.093 28.9 391.764 27.404 391.764 25.704C391.764 23.9813 392.104 22.4627 392.784 21.148C393.487 19.8333 394.461 18.8133 395.708 18.088C396.955 17.3627 398.383 17 399.992 17C400.853 17 401.715 17.1247 402.576 17.374C403.46 17.6233 404.242 17.9633 404.922 18.394C405.647 18.8927 406.01 19.4707 406.01 20.128C406.01 20.5133 405.908 20.842 405.704 21.114C405.5 21.3633 405.239 21.488 404.922 21.488C404.718 21.488 404.514 21.4427 404.31 21.352C404.106 21.2387 403.845 21.08 403.528 20.876C402.961 20.5133 402.429 20.2413 401.93 20.06C401.454 19.856 400.876 19.754 400.196 19.754C398.655 19.754 397.453 20.2753 396.592 21.318C395.753 22.3607 395.334 23.8113 395.334 25.67C395.334 27.5287 395.753 28.968 396.592 29.988C397.431 30.9853 398.621 31.484 400.162 31.484C400.842 31.484 401.443 31.382 401.964 31.178C402.485 30.974 403.018 30.702 403.562 30.362C403.811 30.2033 404.061 30.0673 404.31 29.954C404.559 29.8407 404.786 29.784 404.99 29.784C405.307 29.784 405.568 29.92 405.772 30.192C405.976 30.4413 406.078 30.7587 406.078 31.144C406.078 31.4613 405.987 31.756 405.806 32.028C405.647 32.2773 405.364 32.538 404.956 32.81C404.276 33.2633 403.483 33.6147 402.576 33.864C401.669 34.1133 400.751 34.238 399.822 34.238ZM417.344 31.552C417.843 31.5973 418.194 31.7333 418.398 31.96C418.625 32.164 418.738 32.4587 418.738 32.844C418.738 33.2973 418.557 33.6487 418.194 33.898C417.854 34.1247 417.344 34.2153 416.664 34.17L415.746 34.102C413.91 33.966 412.539 33.4107 411.632 32.436C410.725 31.4387 410.272 29.9767 410.272 28.05V20.06H408.232C407.235 20.06 406.736 19.618 406.736 18.734C406.736 18.326 406.861 18.0087 407.11 17.782C407.382 17.5327 407.756 17.408 408.232 17.408H410.272V13.906C410.272 13.3847 410.419 12.9767 410.714 12.682C411.031 12.3873 411.451 12.24 411.972 12.24C412.493 12.24 412.913 12.3873 413.23 12.682C413.547 12.9767 413.706 13.3847 413.706 13.906V17.408H417.072C417.548 17.408 417.911 17.5327 418.16 17.782C418.432 18.0087 418.568 18.326 418.568 18.734C418.568 19.1647 418.432 19.4933 418.16 19.72C417.911 19.9467 417.548 20.06 417.072 20.06H413.706V28.288C413.706 29.3533 413.921 30.1353 414.352 30.634C414.805 31.1327 415.485 31.416 416.392 31.484L417.344 31.552ZM434.192 29.818C434.51 29.818 434.77 29.9427 434.974 30.192C435.178 30.4413 435.28 30.7587 435.28 31.144C435.28 31.8013 434.872 32.3567 434.056 32.81C433.263 33.2633 432.39 33.6147 431.438 33.864C430.509 34.1133 429.614 34.238 428.752 34.238C426.123 34.238 424.049 33.4787 422.53 31.96C421.012 30.4187 420.252 28.322 420.252 25.67C420.252 23.97 420.581 22.4627 421.238 21.148C421.918 19.8333 422.859 18.8133 424.06 18.088C425.284 17.3627 426.667 17 428.208 17C430.43 17 432.186 17.714 433.478 19.142C434.77 20.57 435.416 22.4967 435.416 24.922C435.416 25.8287 435.008 26.282 434.192 26.282H423.686C423.913 29.7953 425.602 31.552 428.752 31.552C429.591 31.552 430.316 31.4387 430.928 31.212C431.54 30.9853 432.186 30.6907 432.866 30.328C432.934 30.2827 433.116 30.192 433.41 30.056C433.728 29.8973 433.988 29.818 434.192 29.818ZM428.276 19.516C426.962 19.516 425.908 19.9353 425.114 20.774C424.321 21.6127 423.845 22.7913 423.686 24.31H432.458C432.39 22.7687 431.994 21.59 431.268 20.774C430.566 19.9353 429.568 19.516 428.276 19.516ZM452.766 9.86C453.288 9.86 453.707 10.0073 454.024 10.302C454.342 10.5967 454.5 10.9933 454.5 11.492V32.504C454.5 33.0253 454.342 33.4333 454.024 33.728C453.73 34.0227 453.322 34.17 452.8 34.17C452.279 34.17 451.86 34.0227 451.542 33.728C451.248 33.4333 451.1 33.0253 451.1 32.504V31.144C450.602 32.1413 449.876 32.912 448.924 33.456C447.972 33.9773 446.873 34.238 445.626 34.238C444.198 34.238 442.918 33.8753 441.784 33.15C440.674 32.4247 439.801 31.4047 439.166 30.09C438.554 28.7753 438.248 27.268 438.248 25.568C438.248 23.8453 438.554 22.338 439.166 21.046C439.801 19.754 440.674 18.7567 441.784 18.054C442.895 17.3513 444.176 17 445.626 17C446.873 17 447.961 17.272 448.89 17.816C449.842 18.3373 450.568 19.0853 451.066 20.06V11.424C451.066 10.948 451.214 10.574 451.508 10.302C451.826 10.0073 452.245 9.86 452.766 9.86ZM446.442 31.518C447.916 31.518 449.06 31.008 449.876 29.988C450.692 28.968 451.1 27.5173 451.1 25.636C451.1 23.7547 450.692 22.304 449.876 21.284C449.083 20.264 447.938 19.754 446.442 19.754C444.946 19.754 443.779 20.264 442.94 21.284C442.124 22.2813 441.716 23.7093 441.716 25.568C441.716 27.4267 442.136 28.8887 442.974 29.954C443.813 30.9967 444.969 31.518 446.442 31.518ZM490.829 18.122C491.078 17.442 491.543 17.102 492.223 17.102C492.654 17.102 493.039 17.2493 493.379 17.544C493.719 17.8387 493.889 18.2013 493.889 18.632C493.889 18.8587 493.844 19.0627 493.753 19.244L488.109 33.014C487.973 33.3767 487.746 33.66 487.429 33.864C487.112 34.0453 486.76 34.136 486.375 34.136C486.012 34.136 485.672 34.0453 485.355 33.864C485.038 33.66 484.811 33.3767 484.675 33.014L480.255 22.1L475.937 33.014C475.801 33.3767 475.574 33.66 475.257 33.864C474.962 34.0453 474.622 34.136 474.237 34.136C473.874 34.136 473.523 34.0453 473.183 33.864C472.866 33.66 472.628 33.3767 472.469 33.014L466.859 19.244C466.768 19.0627 466.723 18.87 466.723 18.666C466.723 18.2127 466.904 17.8387 467.267 17.544C467.652 17.2493 468.072 17.102 468.525 17.102C469.205 17.102 469.67 17.4307 469.919 18.088L474.305 29.682L478.793 18.19C478.929 17.8273 479.144 17.5553 479.439 17.374C479.734 17.1927 480.051 17.102 480.391 17.102C480.708 17.102 481.014 17.1927 481.309 17.374C481.604 17.5553 481.819 17.8273 481.955 18.19L486.443 29.614L490.829 18.122ZM504.049 34.238C502.417 34.238 500.978 33.8867 499.731 33.184C498.507 32.4813 497.555 31.484 496.875 30.192C496.218 28.8773 495.889 27.3587 495.889 25.636C495.889 23.8907 496.218 22.372 496.875 21.08C497.555 19.7653 498.507 18.7567 499.731 18.054C500.978 17.3513 502.417 17 504.049 17C505.681 17 507.109 17.3513 508.333 18.054C509.58 18.7567 510.532 19.7653 511.189 21.08C511.869 22.372 512.209 23.8907 512.209 25.636C512.209 27.3587 511.869 28.8773 511.189 30.192C510.532 31.484 509.58 32.4813 508.333 33.184C507.109 33.8867 505.681 34.238 504.049 34.238ZM504.049 31.518C505.568 31.518 506.724 31.0193 507.517 30.022C508.333 29.0247 508.741 27.5627 508.741 25.636C508.741 23.732 508.333 22.2813 507.517 21.284C506.701 20.264 505.545 19.754 504.049 19.754C502.553 19.754 501.397 20.264 500.581 21.284C499.765 22.2813 499.357 23.732 499.357 25.636C499.357 27.5627 499.754 29.0247 500.547 30.022C501.363 31.0193 502.53 31.518 504.049 31.518ZM524.736 17.068C525.824 17 526.368 17.4647 526.368 18.462C526.368 18.9607 526.244 19.3347 525.994 19.584C525.745 19.8333 525.314 19.9807 524.702 20.026L523.682 20.128C522.254 20.264 521.189 20.7627 520.486 21.624C519.806 22.4853 519.466 23.528 519.466 24.752V32.538C519.466 33.082 519.308 33.49 518.99 33.762C518.673 34.034 518.265 34.17 517.766 34.17C517.268 34.17 516.848 34.034 516.508 33.762C516.191 33.49 516.032 33.082 516.032 32.538V18.7C516.032 18.1787 516.191 17.782 516.508 17.51C516.848 17.2153 517.268 17.068 517.766 17.068C518.22 17.068 518.594 17.2153 518.888 17.51C519.206 17.782 519.364 18.1673 519.364 18.666V20.298C519.818 19.3007 520.475 18.5413 521.336 18.02C522.198 17.4987 523.172 17.1927 524.26 17.102L524.736 17.068ZM542.424 31.314C542.832 31.654 543.036 32.0733 543.036 32.572C543.036 33.0027 542.888 33.3767 542.594 33.694C542.299 34.0113 541.948 34.17 541.54 34.17C541.109 34.17 540.724 34.0113 540.384 33.694L531.918 26.214V32.504C531.918 33.048 531.759 33.4673 531.442 33.762C531.124 34.034 530.716 34.17 530.218 34.17C529.719 34.17 529.3 34.034 528.96 33.762C528.642 33.4673 528.484 33.048 528.484 32.504V11.526C528.484 10.982 528.642 10.574 528.96 10.302C529.3 10.0073 529.719 9.86 530.218 9.86C530.716 9.86 531.124 10.0073 531.442 10.302C531.759 10.574 531.918 10.982 531.918 11.526V24.854L539.67 17.612C540.055 17.272 540.429 17.102 540.792 17.102C541.222 17.102 541.596 17.2607 541.914 17.578C542.231 17.8953 542.39 18.2693 542.39 18.7C542.39 19.1307 542.197 19.5273 541.812 19.89L535.76 25.432L542.424 31.314ZM551.562 34.238C549.25 34.238 547.358 33.762 545.884 32.81C545.476 32.5607 545.182 32.3 545 32.028C544.842 31.756 544.762 31.45 544.762 31.11C544.762 30.7473 544.864 30.4413 545.068 30.192C545.272 29.9427 545.533 29.818 545.85 29.818C546.145 29.818 546.61 29.9993 547.244 30.362C547.924 30.7247 548.582 31.0193 549.216 31.246C549.874 31.4727 550.69 31.586 551.664 31.586C552.752 31.586 553.602 31.3933 554.214 31.008C554.826 30.6227 555.132 30.0787 555.132 29.376C555.132 28.9227 555.008 28.56 554.758 28.288C554.532 28.016 554.124 27.778 553.534 27.574C552.945 27.3473 552.072 27.1093 550.916 26.86C548.922 26.4293 547.482 25.8513 546.598 25.126C545.737 24.378 545.306 23.3693 545.306 22.1C545.306 21.1253 545.59 20.2527 546.156 19.482C546.723 18.6887 547.505 18.0767 548.502 17.646C549.5 17.2153 550.633 17 551.902 17C552.809 17 553.693 17.1247 554.554 17.374C555.416 17.6007 556.175 17.9407 556.832 18.394C557.58 18.8927 557.954 19.4707 557.954 20.128C557.954 20.4907 557.841 20.7967 557.614 21.046C557.41 21.2953 557.161 21.42 556.866 21.42C556.662 21.42 556.458 21.3747 556.254 21.284C556.05 21.1933 555.778 21.046 555.438 20.842C554.826 20.4793 554.248 20.196 553.704 19.992C553.183 19.788 552.526 19.686 551.732 19.686C550.78 19.686 550.01 19.89 549.42 20.298C548.854 20.706 548.57 21.2613 548.57 21.964C548.57 22.5987 548.831 23.0973 549.352 23.46C549.896 23.8 550.905 24.1287 552.378 24.446C553.897 24.7633 555.087 25.126 555.948 25.534C556.81 25.942 557.422 26.452 557.784 27.064C558.17 27.6533 558.362 28.4127 558.362 29.342C558.362 30.8153 557.739 32.0053 556.492 32.912C555.268 33.796 553.625 34.238 551.562 34.238ZM563.851 27.54C563.579 27.54 563.341 27.438 563.137 27.234C562.933 27.03 562.819 26.758 562.797 26.418L561.777 12.002C561.709 11.3673 561.867 10.8573 562.253 10.472C562.661 10.064 563.193 9.86 563.851 9.86C564.485 9.86 564.995 10.064 565.381 10.472C565.789 10.8573 565.959 11.3673 565.891 12.002L564.871 26.418C564.848 26.7807 564.746 27.064 564.565 27.268C564.383 27.4493 564.145 27.54 563.851 27.54ZM563.851 34.17C563.239 34.17 562.717 33.966 562.287 33.558C561.879 33.15 561.675 32.6287 561.675 31.994C561.675 31.3593 561.879 30.838 562.287 30.43C562.717 29.9993 563.239 29.784 563.851 29.784C564.463 29.784 564.973 29.9993 565.381 30.43C565.789 30.838 565.993 31.3593 565.993 31.994C565.993 32.6287 565.789 33.15 565.381 33.558C564.973 33.966 564.463 34.17 563.851 34.17Z" fill="black"/>
</svg>
