<svg width="95" height="38" viewBox="0 0 95 38" fill="none" xmlns="http://www.w3.org/2000/svg">
<path d="M13.0537 29C12.7998 28.5049 12.6157 27.8892 12.5015 27.1528C11.1685 28.6382 9.43555 29.3809 7.30273 29.3809C5.28418 29.3809 3.6084 28.7969 2.27539 27.6289C0.955078 26.4609 0.294922 24.9883 0.294922 23.2109C0.294922 21.0273 1.10107 19.3516 2.71338 18.1836C4.33838 17.0156 6.68066 16.4253 9.74023 16.4126H12.2729V15.2319C12.2729 14.2798 12.0254 13.5181 11.5303 12.9468C11.0479 12.3755 10.2798 12.0898 9.22607 12.0898C8.29932 12.0898 7.56934 12.312 7.03613 12.7563C6.51562 13.2007 6.25537 13.8101 6.25537 14.5845H0.751953C0.751953 13.3911 1.12012 12.2866 1.85645 11.271C2.59277 10.2554 3.63379 9.46191 4.97949 8.89062C6.3252 8.30664 7.83594 8.01465 9.51172 8.01465C12.0508 8.01465 14.063 8.65576 15.5483 9.93799C17.0464 11.2075 17.7954 12.9976 17.7954 15.3081V24.2393C17.8081 26.1943 18.0811 27.6733 18.6143 28.6763V29H13.0537ZM8.50244 25.1724C9.31494 25.1724 10.064 24.9946 10.7495 24.6392C11.4351 24.271 11.9429 23.7822 12.2729 23.1729V19.6309H10.2163C7.46143 19.6309 5.99512 20.583 5.81738 22.4873L5.79834 22.811C5.79834 23.4966 6.03955 24.0615 6.52197 24.5059C7.00439 24.9502 7.66455 25.1724 8.50244 25.1724ZM27.8501 8.39551V30.1235C27.8501 32.396 27.2471 34.1606 26.041 35.4175C24.835 36.687 23.0957 37.3218 20.8232 37.3218C19.8711 37.3218 18.9634 37.2139 18.1001 36.998V32.6372C18.7603 32.7515 19.3379 32.8086 19.833 32.8086C21.4961 32.8086 22.3276 31.9263 22.3276 30.1616V8.39551H27.8501ZM21.8896 3.06348C21.8896 2.23828 22.1626 1.55908 22.7085 1.02588C23.2671 0.492676 24.0225 0.226074 24.9746 0.226074C25.9268 0.226074 26.6758 0.492676 27.2217 1.02588C27.7803 1.55908 28.0596 2.23828 28.0596 3.06348C28.0596 3.90137 27.7739 4.58691 27.2026 5.12012C26.644 5.65332 25.9014 5.91992 24.9746 5.91992C24.0479 5.91992 23.2988 5.65332 22.7275 5.12012C22.1689 4.58691 21.8896 3.90137 21.8896 3.06348ZM41.6372 29.3809C38.6157 29.3809 36.1528 28.4541 34.2485 26.6006C32.3569 24.7471 31.4111 22.2778 31.4111 19.1929V18.6597C31.4111 16.5903 31.811 14.7432 32.6108 13.1182C33.4106 11.4805 34.5405 10.2236 36.0005 9.34766C37.4731 8.45898 39.1489 8.01465 41.0278 8.01465C43.8462 8.01465 46.0615 8.90332 47.6738 10.6807C49.2988 12.458 50.1113 14.978 50.1113 18.2407V20.4878H36.9907C37.1685 21.8335 37.7017 22.9126 38.5903 23.7251C39.4917 24.5376 40.6279 24.9438 41.999 24.9438C44.1191 24.9438 45.7759 24.1758 46.9692 22.6396L49.6733 25.6675C48.8481 26.8354 47.731 27.7495 46.3218 28.4097C44.9126 29.0571 43.3511 29.3809 41.6372 29.3809ZM41.0088 12.4707C39.917 12.4707 39.0283 12.8389 38.3428 13.5752C37.6699 14.3115 37.2383 15.3652 37.0479 16.7363H44.7031V16.2983C44.6777 15.0796 44.3477 14.1401 43.7129 13.48C43.0781 12.8071 42.1768 12.4707 41.0088 12.4707ZM62.7368 29.3809C59.7153 29.3809 57.2524 28.4541 55.3481 26.6006C53.4565 24.7471 52.5107 22.2778 52.5107 19.1929V18.6597C52.5107 16.5903 52.9106 14.7432 53.7104 13.1182C54.5103 11.4805 55.6401 10.2236 57.1001 9.34766C58.5728 8.45898 60.2485 8.01465 62.1274 8.01465C64.9458 8.01465 67.1611 8.90332 68.7734 10.6807C70.3984 12.458 71.2109 14.978 71.2109 18.2407V20.4878H58.0903C58.2681 21.8335 58.8013 22.9126 59.6899 23.7251C60.5913 24.5376 61.7275 24.9438 63.0986 24.9438C65.2188 24.9438 66.8755 24.1758 68.0688 22.6396L70.7729 25.6675C69.9478 26.8354 68.8306 27.7495 67.4214 28.4097C66.0122 29.0571 64.4507 29.3809 62.7368 29.3809ZM62.1084 12.4707C61.0166 12.4707 60.1279 12.8389 59.4424 13.5752C58.7695 14.3115 58.3379 15.3652 58.1475 16.7363H65.8027V16.2983C65.7773 15.0796 65.4473 14.1401 64.8125 13.48C64.1777 12.8071 63.2764 12.4707 62.1084 12.4707ZM80.9419 3.33008V8.39551H84.4648V12.4326H80.9419V22.7158C80.9419 23.4775 81.0879 24.0234 81.3799 24.3535C81.6719 24.6836 82.2305 24.8486 83.0557 24.8486C83.665 24.8486 84.2046 24.8042 84.6743 24.7153V28.8857C83.5952 29.2158 82.4844 29.3809 81.3418 29.3809C77.4824 29.3809 75.5146 27.4321 75.4385 23.5347V12.4326H72.4297V8.39551H75.4385V3.33008H80.9419Z" fill="black"/>
<path d="M87.8164 26.2959C87.8164 25.4199 88.1084 24.709 88.6924 24.1631C89.2891 23.6172 90.0317 23.3442 90.9204 23.3442C91.8218 23.3442 92.5645 23.6172 93.1484 24.1631C93.7451 24.709 94.0435 25.4199 94.0435 26.2959C94.0435 27.1592 93.7515 27.8638 93.1675 28.4097C92.5835 28.9429 91.8345 29.2095 90.9204 29.2095C90.019 29.2095 89.2764 28.9429 88.6924 28.4097C88.1084 27.8638 87.8164 27.1592 87.8164 26.2959Z" fill="#F2C94C"/>
</svg>
